<?xml version="1.0" encoding="utf-8" ?><svg xmlns="http://www.w3.org/2000/svg" xmlns:xlink="http://www.w3.org/1999/xlink" width="1024" height="1024" viewBox="0 0 1024 1024"><path fill="#7FCAF8" transform="scale(2 2)" d="M129.047 76.5367L417.003 76.515C433.4 76.3925 448.206 80.4764 452.687 99.2941C454.363 106.333 453.757 116.388 453.756 123.89L453.748 156.263L453.744 344.513C453.745 356.405 455.839 370.21 446.206 379.28C439.356 385.73 433.091 388.674 423.691 388.651L381.741 388.574L381.759 412.485C381.755 432.916 381.186 431.298 363.32 431.263L153.063 431.259C132.991 431.267 131.179 434.939 131.194 412.565L131.203 389.004C124.453 389.172 116.954 389.004 110.142 389.004L86.9678 389.113C72.7269 389.278 59.9233 380.383 57.9424 365.672C57.7542 364.274 57.875 359.94 57.8776 358.277L57.8851 111.473C58.0033 80.0003 73.4375 76.5278 100.945 76.5257L129.047 76.5367ZM367.687 418.272L367.687 288.013C367.666 287.266 367.756 286.24 367.332 285.69L316.137 311.271C305.748 316.444 295.627 321.754 285.106 326.769C282.245 328.253 279.333 329.669 276.559 331.302C271.039 332.937 261.866 338.348 255.941 340.747C242.37 335.54 224.749 325.401 210.982 318.745L177.469 302.396C160.895 294.5 155.336 294.919 144.973 279.937L144.973 418.272L367.687 418.272Z"/><path fill="#2E5D85" transform="scale(2 2)" d="M209.446 224.19C208.92 207.114 214.54 193.525 233.914 193.764C243.483 193.883 253.48 193.488 263.019 193.744C288.987 194.444 302.922 192.797 302.732 224.19L366.749 224.178C385.347 224.178 381.768 229.098 381.758 245.353L381.741 366.513L381.714 380.204C381.691 382.389 381.471 386.674 381.741 388.574L381.759 412.485C381.755 432.916 381.186 431.298 363.32 431.263L153.063 431.259C132.991 431.267 131.179 434.939 131.194 412.565L131.203 389.004L131.203 360.622L131.186 246.701C131.164 230.227 128.033 224.183 147.665 224.18L209.446 224.19ZM367.687 418.272L367.687 288.013C367.666 287.266 367.756 286.24 367.332 285.69L316.137 311.271C305.748 316.444 295.627 321.754 285.106 326.769C282.245 328.253 279.333 329.669 276.559 331.302C271.039 332.937 261.866 338.348 255.941 340.747C242.37 335.54 224.749 325.401 210.982 318.745L177.469 302.396C160.895 294.5 155.336 294.919 144.973 279.937L144.973 418.272L367.687 418.272Z"/><path fill="#BDD5E2" transform="scale(2 2)" d="M168.564 369.767L241.392 369.749C244.275 369.727 247.958 369.505 250.667 369.82C257.281 370.588 260.599 382.217 248.092 382.302L174.747 382.307C172.065 382.317 169.152 382.277 166.321 382.36C160.149 382.541 155.977 370.978 168.564 369.767Z"/><path fill="#BDD5E2" transform="scale(2 2)" d="M166.401 347.008C182.382 346.726 198.573 346.687 214.558 347.05C218.279 347.135 219.663 349.047 220.887 352.192C220.059 356.283 218.694 358.501 214.367 358.989L180.907 358.992C176.185 358.992 170.68 359.169 166.044 359.045C158.827 358.853 157.787 348.123 166.401 347.008Z"/><path fill="#BDD5E2" transform="scale(2 2)" d="M165.409 393.498C181.467 392.983 198.048 393.846 214.158 393.513C220.876 393.375 223.12 402.733 215.815 405.391C213.238 405.532 209.96 405.406 207.317 405.402L190.904 405.392C182.692 405.39 174.392 405.472 166.189 405.369C159.859 405.29 157.579 395.264 165.409 393.498Z"/><path fill="#11CACD" transform="scale(2 2)" d="M144.973 237.065L367.687 237.065L367.687 288.013C367.666 287.266 367.756 286.24 367.332 285.69L316.137 311.271C305.748 316.444 295.627 321.754 285.106 326.769C282.245 328.253 279.333 329.669 276.559 331.302C271.039 332.937 261.866 338.348 255.941 340.747C242.37 335.54 224.749 325.401 210.982 318.745L177.469 302.396C160.895 294.5 155.336 294.919 144.973 279.937L144.973 237.065Z"/><path fill="#2E5D85" transform="scale(2 2)" d="M226.274 254.014C233.355 245.003 248.666 249.178 249.525 260.985C249.891 266.018 249.379 271.294 250.254 276.114C251.079 278.047 267.886 302.871 269.542 304.353C274.389 312.017 280.637 318.928 285.106 326.769C282.245 328.253 279.333 329.669 276.559 331.302C274.496 329.208 260.399 320.529 257.164 318.911C256.949 318.311 242.426 309.303 240.602 308.272C217.895 296.888 224.715 289.381 225.473 267.245C225.529 265.623 225.374 264.089 225.559 262.39C236.06 263.799 234.942 253.661 226.274 254.014Z"/><path fill="#3F96D2" transform="scale(2 2)" d="M288.537 243.713C299.415 262.085 290.616 295.586 269.542 304.353C267.886 302.871 251.079 278.047 250.254 276.114C271.328 272.689 280.655 263.242 288.537 243.713Z"/><defs><linearGradient id="gradient_0" gradientUnits="userSpaceOnUse" x1="247.06516" y1="312.37936" x2="238.28477" y2="325.91418"><stop offset="0" stop-color="#004179"/><stop offset="1" stop-color="#076894"/></linearGradient></defs><path fill="url(#gradient_0)" transform="scale(2 2)" d="M240.602 308.272C242.426 309.303 256.949 318.311 257.164 318.911C252.335 322.154 246.9 325.912 242.253 329.388C239.401 326.98 237.25 324.599 234.1 322.238C232.349 320.925 229.011 319.567 228.278 318.911C230.362 316.788 238.162 309.966 240.602 308.272Z"/><path fill="#F7D94C" transform="scale(2 2)" d="M226.274 254.014C234.942 253.661 236.06 263.799 225.559 262.39C224.161 261.174 217.811 261.629 215.815 261.687C220.041 257.106 221.621 257.249 226.095 254.14L226.274 254.014Z"/><path fill="#348AA3" transform="scale(2 2)" d="M226.274 321.025C227.036 320.108 227.388 319.695 228.278 318.911C229.011 319.567 232.349 320.925 234.1 322.238C237.25 324.599 239.401 326.98 242.253 329.388C241.393 330.186 240.444 330.691 239.439 331.302C235.204 328.809 231.062 324.113 226.274 321.025Z"/><path fill="#FBFBFC" transform="scale(2 2)" d="M230.68 207.243C231.133 207.22 231.543 207.198 231.997 207.194L263.857 207.231C281.175 207.233 289.557 203.995 289.489 224.19C286.929 224.245 284.224 224.195 281.652 224.19L222.74 224.19C222.657 216.88 221.954 209.877 230.68 207.243Z"/><path fill="#348AA3" transform="scale(2 2)" d="M129.047 76.5367L417.003 76.515C433.4 76.3925 448.206 80.4764 452.687 99.2941C454.363 106.333 453.757 116.388 453.756 123.89L453.748 156.263C447.208 156.513 438.753 156.27 432.044 156.263L414.991 156.263L401.959 156.263L386.561 156.263L373.593 156.263L110.142 156.263L110.142 156.263C110.439 147.236 109.812 138.818 110.485 129.519L110.142 129.245L110.142 129.245C110.528 123.618 110.585 111.886 110.142 106.313L110.142 106.313C110.536 102.349 110.789 97.9086 112.087 94.3154C116.177 82.9883 128.327 79.243 129.047 76.5367Z"/><path fill="#1EE4E9" transform="scale(2 2)" d="M110.142 106.313C121.724 109.908 121.731 123.788 110.142 129.245C110.528 123.618 110.585 111.886 110.142 106.313Z"/><path fill="#FBFBFC" transform="scale(2 2)" d="M189.366 103.759C193.179 103.563 198.899 103.754 202.891 103.754L404.053 103.759C409.029 103.76 417.583 102.811 422.016 104.914C433.787 110.502 431.431 125.761 418.806 129.245C414.56 129.397 409.483 129.255 405.155 129.253L191.329 129.18C175.107 129.11 172.994 106.886 189.366 103.759Z"/><path fill="#1EE4E9" transform="scale(2 2)" d="M145.341 106.219C151.632 105.665 157.166 110.35 157.658 116.646C158.15 122.942 153.411 128.43 147.11 128.86C140.897 129.283 135.502 124.624 135.017 118.415C134.531 112.207 139.137 106.766 145.341 106.219Z"/><defs><linearGradient id="gradient_1" gradientUnits="userSpaceOnUse" x1="52.59243" y1="234.60077" x2="134.92192" y2="231.02878"><stop offset="0" stop-color="#213A68"/><stop offset="1" stop-color="#107A93"/></linearGradient></defs><path fill="url(#gradient_1)" transform="scale(2 2)" d="M110.142 389.004L86.9678 389.113C72.7269 389.278 59.9233 380.383 57.9424 365.672C57.7542 364.274 57.875 359.94 57.8776 358.277L57.8851 111.473C58.0033 80.0003 73.4375 76.5278 100.945 76.5257L129.047 76.5367C128.327 79.243 116.177 82.9883 112.087 94.3154C110.789 97.9086 110.536 102.349 110.142 106.313L110.142 106.313C110.585 111.886 110.528 123.618 110.142 129.245L110.142 129.245L110.485 129.519C109.812 138.818 110.439 147.236 110.142 156.263L110.142 156.263C109.891 159.095 110.118 164.873 110.142 167.886L110.141 341.229C110.144 357.095 112.03 368.827 131.203 369.767C131.189 368.182 131.027 361.828 131.203 360.622L131.203 389.004C124.453 389.172 116.954 389.004 110.142 389.004Z"/><path fill="#3F96D2" transform="scale(2 2)" d="M110.142 156.263L110.142 156.263C109.891 159.095 110.118 164.873 110.142 167.886L110.141 341.229C110.144 357.095 112.03 368.827 131.203 369.767C131.189 368.182 131.027 361.828 131.203 360.622L131.203 389.004C124.453 389.172 116.954 389.004 110.142 389.004C84.3726 381.368 87.001 365.185 87.0008 343.573L87.0063 156.263C94.5089 156.25 102.745 156.494 110.142 156.263Z"/><path fill="#11CACD" transform="scale(2 2)" d="M110.142 129.245C90.7131 130.693 92.282 103.252 110.142 106.313L110.142 106.313C110.585 111.886 110.528 123.618 110.142 129.245L110.142 129.245Z"/><path fill="#3F96D2" transform="scale(2 2)" d="M432.044 156.263C438.753 156.27 447.208 156.513 453.748 156.263L453.744 344.513C453.745 356.405 455.839 370.21 446.206 379.28C439.356 385.73 433.091 388.674 423.691 388.651L381.741 388.574C381.471 386.674 381.691 382.389 381.714 380.204L381.741 366.513L405.202 366.526C410.481 366.526 416.943 366.818 422.06 365.817C435.265 363.233 432.053 341.96 432.044 332.013L432.044 156.263Z"/><path fill="#FBFBFC" transform="scale(2 2)" d="M401.959 156.263L414.991 156.263C415.005 159.905 415.923 173.075 412.844 175.604C400.353 185.86 401.927 161.825 401.959 156.263Z"/><path fill="#FBFBFC" transform="scale(2 2)" d="M373.593 156.263L386.561 156.263C386.763 159.881 386.352 164.076 386.632 167.558C387.354 176.528 380.44 181.011 373.593 173.702C373.269 169.556 373.58 160.708 373.593 156.263Z"/></svg>